<svg xmlns="http://www.w3.org/2000/svg" viewBox="0 0 413 411"><g fill="none" fill-rule="evenodd"><path fill="#FF6F72" d="M81 394.6c29 2.2 68.3-1.5 98.4-5.8-3-47.6-5.3-94.7-6.8-141.7l122.7-3c0 48-.5 96.6-1.6 143.7 28.6 6.4 63 8 95.2 6.4 5-122.7 4-248 7-374.7-30-4-71-2-104 4.4 1.3 47 2.4 93.5 2.4 140l-125 7c-1-50-1.8-100-1.8-150-49.8-1.4-99.5 0-150.8 7-4.4 24.4.4 58.8 6.7 78.4l48-3.6c1.6 98.4 4.8 199.4 9 293z"/><path fill="#EF5457" d="M389 393c-32.4 1.6-66.7 0-95.3-6.3l48.7-32.8c1.3-49 1.8-100 2-151 .3-50 0-99 0-145l52-40c-2.7 127-1.7 252-7.4 375zM168.2 20c0 49.8.5 99.8 1.6 150l-47 40c-1.4-49.8-2-99.8-2.7-149l48-40.7zm-118 43.5l-26 41.8 47.7-3.7 48-40.8c-23 0-45 .6-70 2.7zm129 325.3c-30 4.3-69.2 8-98.3 5.8l47-40c-3-47.5-4-96-6-144.8l221.5-6.4-49 40L172 247c1.5 47 3.7 94.8 6.8 142z"/><path fill="#fff" d="M80 410.3c-9.5-.8-14.3-7-14.8-16.4-4-91-7-185-8.8-276L28 120c-9 1-17-2.5-19-11.2C1 83.2-2 48 2 26c1.5-9.3 6.8-14 15.8-15 55-7.3 111.4-7.8 150-7 10.3.2 16 5.8 16 16 .4 44 .7 88.5 1.7 133.2l94-5.6c-.4-40.7-1-81.5-2.7-123-.3-9.8 4.2-15.6 13.7-17.4 36-7 78.8-8.5 107.7-4.3 9.5 1 14.3 7 14 17-3 125-1.6 251-7.4 373-.5 10-5.8 15-16 16-24.8 0-64.7 0-97.5-7-9.2-2-13.7-8-13.5-18 .8-41 1.3-83 1.6-125.4l-90.4 3c1.3 46 3.5 86.2 6 125 1 9.6-4 16-14 17.3-38 5.3-78.5 7.4-101.2 5.5zm1-15.7c29 2.2 68.3-1.5 98.4-5.8-3-47.6-5.3-94.7-6.8-141.7l122.7-3c0 48-.5 96-1.6 143.7 28.6 6.4 63 8 95.2 6.4 5-122.7 4-248 7-374.7-30-4-71-2-104 4.4 1.3 47 2.4 93.5 2.4 140l-125 7c-1-50-1.8-100-1.8-150-49.8-1.4-99.5 0-150.8 7-4.4 24.4.4 58.8 6.7 78.4l48-3.6c1.6 98.4 4.8 199.4 9 293z"/></g></svg>