<?xml version="1.0" encoding="utf-8"?>
<!-- Generator: Adobe Illustrator 21.1.0, SVG Export Plug-In . SVG Version: 6.00 Build 0)  -->
<svg version="1.1" id="Capa_1" xmlns="http://www.w3.org/2000/svg" xmlns:xlink="http://www.w3.org/1999/xlink" x="0px" y="0px"
	 viewBox="0 0 430 430" style="enable-background:new 0 0 430 430;" xml:space="preserve">
<style type="text/css">
	.st0{fill:#FFFFFF;}
</style>
<g>
	<path id="Behance" class="st0" d="M387.6,119.5H280.4V92.9h107.4L387.6,119.5L387.6,119.5z M208.9,228.8c7,10.8,10.4,23.7,10.4,39
		c0,15.8-3.9,30-11.9,42.5c-5.1,8.3-11.4,15.3-18.8,20.9c-8.5,6.5-18.5,11-30.1,13.3s-24.1,3.6-37.6,3.6H0.8V81.8h128.7
		c32.5,0.5,55.5,10,69,28.4c8.2,11.4,12.1,24.9,12.1,40.7c0,16.3-4.1,29.4-12.3,39.2c-4.6,5.6-11.4,10.6-20.3,15.1
		C191.7,210.3,202,218,208.9,228.8z M62.3,186.9h56.4c11.6,0,20.9-2.2,28.2-6.6c7.2-4.4,10.9-12.2,10.9-23.4
		c0-12.3-4.8-20.6-14.3-24.6c-8.2-2.8-18.7-4.2-31.5-4.2H62.3V186.9z M163.1,264c0-13.8-5.7-23.4-16.9-28.6
		c-6.3-2.9-15.2-4.4-26.7-4.5H62.3v71h56.4c11.6,0,20.5-1.5,27-4.7C157.3,291.5,163.1,280.5,163.1,264z M427.4,220.7
		c1.3,8.8,1.9,21.4,1.7,37.9h-139c0.8,19.2,7.4,32.6,19.9,40.2c7.6,4.8,16.7,7.2,27.5,7.2c11.4,0,20.6-2.9,27.7-8.8
		c3.9-3.1,7.3-7.6,10.3-13.1h51c-1.3,11.4-7.5,22.8-18.5,34.5c-17.1,18.5-41,27.9-71.8,27.9c-25.4,0-47.8-7.9-67.2-23.5
		c-19.3-15.6-29.1-41-29.1-76.4c0-33.2,8.8-58.5,26.3-76.1c17.5-17.7,40.3-26.5,68.3-26.5c16.6,0,31.6,3,44.9,9
		c13.3,6,24.3,15.3,33,28.3C420.1,192.6,425.2,205.8,427.4,220.7z M377.4,225.7c-0.9-13.2-5.4-23.3-13.3-30.2
		c-7.9-6.9-17.8-10.4-29.6-10.4c-12.8,0-22.7,3.7-29.8,11s-11.5,17.1-13.3,29.6H377.4L377.4,225.7z"/>
</g>
</svg>
