<?xml version="1.0" encoding="UTF-8"?>
<svg width="512px" height="513px" viewBox="0 0 512 513" version="1.1" xmlns="http://www.w3.org/2000/svg" xmlns:xlink="http://www.w3.org/1999/xlink">
    <title>email-icon</title>
    <g id="Page-1" stroke="none" stroke-width="1" fill="none" fill-rule="evenodd">
        <g id="email-icon" transform="translate(0.000000, 0.496732)" fill="#FFFFFF">
            <rect id="Rectangle" fill-opacity="0" x="0" y="0" width="512" height="512"></rect>
            <path d="M256.851929,285.503268 L256.949193,285.503268 C260.375679,285.503268 263.762071,284.510414 266.501775,282.702663 L267.244985,282.225886 C267.406842,282.120594 267.576125,282.024942 267.74615,281.911494 L276.401832,274.759831 L483,104.496122 C482.572339,103.906638 481.843979,103.503268 481.0681,103.503268 L31.4871617,103.503268 C30.9295689,103.503268 30.4120693,103.704953 30,104.043814 L246.15075,281.967106 C248.874862,284.21975 252.761678,285.503268 256.851929,285.503268 Z M29,127.503268 L29,380.503268 L184,255.277299 L29,127.503268 Z M328,256.172376 L483,380.503268 L483,128.503268 L328,256.172376 Z M279.31687,296.738055 C273.155961,301.801752 265.097448,304.592953 256.634637,304.592953 C248.139927,304.592953 240.088832,301.818101 233.944243,296.778184 L198.510672,267.503268 L29,404.656332 L29,405.09255 C29,406.395259 30.1142306,407.503268 31.4302393,407.503268 L480.602401,407.503268 C481.89393,407.503268 483,406.395259 483,405.084375 L483,404.680112 L313.635468,268.361585 L279.31687,296.738055 Z" id="Shape" fill-rule="nonzero"></path>
        </g>
    </g>
</svg>