<?xml version="1.0" encoding="UTF-8"?>
<svg width="2500px" height="1985px" viewBox="0 0 2500 1985" version="1.1" xmlns="http://www.w3.org/2000/svg" xmlns:xlink="http://www.w3.org/1999/xlink">
    <title>Path</title>
    <g id="Page-1" stroke="none" stroke-width="1" fill="none" fill-rule="evenodd">
        <path d="M296.451915,404.93533 C299.557973,374.242302 287.854962,343.905658 264.939309,323.248087 L31.5126056,42.0105812 L31.5126056,0 L756.302522,0 L1316.5266,1228.80952 L1809.05697,0 L2500,0 L2500,42.0105812 L2300.42017,233.392121 C2283.2142,246.509281 2274.67916,268.06826 2278.24464,289.406231 L2278.24464,1695.59378 C2274.67916,1716.93174 2283.2142,1738.49071 2300.42017,1751.60788 L2495.33146,1942.98942 L2495.33146,1985 L1514.93931,1985 L1514.93931,1942.98942 L1716.85342,1746.94004 C1736.69468,1727.1017 1736.69468,1721.26691 1736.69468,1690.92593 L1736.69468,554.30629 L1175.30345,1980.33216 L1099.43977,1980.33216 L445.845003,554.30629 L445.845003,1510.04702 C440.395569,1550.22906 453.73893,1590.68357 482.026144,1619.74134 L744.631185,1938.32158 L744.631185,1980.33216 L0,1980.33216 L0,1938.32158 L262.605042,1619.74134 C290.6863,1590.63539 303.251599,1549.91252 296.451915,1510.04702 L296.451915,404.93533 Z" id="Path" fill="#FFFFFF" fill-rule="nonzero"></path>
    </g>
</svg>