<?xml version="1.0" encoding="UTF-8"?>
<svg width="2500px" height="2500px" viewBox="0 0 2500 2500" version="1.1" xmlns="http://www.w3.org/2000/svg" xmlns:xlink="http://www.w3.org/1999/xlink">
    <title>Group</title>
    <g id="Page-1" stroke="none" stroke-width="1" fill="none" fill-rule="evenodd">
        <g id="Group" fill="#FFFFFF">
            <rect id="Rectangle" fill-opacity="0" x="0" y="0" width="2500" height="2500"></rect>
            <path d="M445.968255,751.144031 C448.587283,725.058823 438.719304,699.276496 419.396825,681.720163 L222.571429,442.703703 L222.571429,407 L833.714286,407 L1306.09523,1451.33333 L1721.39684,407 L2304,407 L2304,442.703703 L2135.71428,605.353908 C2121.20622,616.501842 2114.00947,634.82426 2117.01588,652.958847 L2117.01588,1848.04116 C2114.00947,1866.17574 2121.20622,1884.49815 2135.71428,1895.64609 L2300.06349,2058.2963 L2300.06349,2094 L1473.39682,2094 L1473.39682,2058.2963 L1643.6508,1891.67901 C1660.38095,1874.81893 1660.38095,1869.86009 1660.38095,1844.07408 L1660.38095,878.090535 L1187.01587,2090.03292 L1123.04761,2090.03292 L571.936507,878.090535 L571.936507,1690.34979 C567.341543,1724.49945 578.592666,1758.8807 602.444445,1783.57614 L823.873015,2054.32922 L823.873015,2090.03292 L196,2090.03292 L196,2054.32922 L417.428572,1783.57614 C441.106688,1758.83975 451.701748,1724.23044 445.968255,1690.34979 L445.968255,751.144031 Z" id="Path" fill-rule="nonzero"></path>
        </g>
    </g>
</svg>